<svg xmlns="http://www.w3.org/2000/svg" viewBox="0 0 256 256" role="img" aria-labelledby="t"><title id="t">Laijie Ji</title><rect width="256" height="256" fill="#fbfaf3"/><path fill="#232a27" d="M130.36 160.47 138.72 163.01V165.37H96.05V163.01L104.41 160.47V70.94Q103.4 70.15 101.62 68.74Q99.83 67.33 97.37 65.38Q94.91 63.43 91.91 61.02V58.94L128.98 50.69H130.36V66.12Z M143.4 104.96Q142.55 104.1 141.21 102.81Q139.86 101.53 138.04 99.7Q136.22 97.88 133.83 95.48V93.4L167.97 84.22H169.35V100.29V156.31Q169.35 161.38 168.75 165.21Q168.15 169.04 166.25 172.52Q164.35 175.99 160.46 179.84Q156.57 183.69 150.08 188.68Q143.59 193.67 133.74 200.69L132.22 198.95Q136.19 194.03 138.44 190.66Q140.69 187.29 141.74 184.41Q142.78 181.52 143.09 178.15Q143.4 174.78 143.4 169.87Z"/><circle cx="155.33" cy="63.92" r="14.51" fill="#4c6b4a"/></svg>
