<svg xmlns="http://www.w3.org/2000/svg" viewBox="0 0 24 24">
  <path fill="currentColor" d="M12 .5C5.65.5.5 5.65.5 12c0 5.06 3.29 9.34 7.86 10.86.58.1.8-.26.8-.58v-1.99c-3.2.7-3.88-1.52-3.88-1.52-.53-1.33-1.3-1.69-1.3-1.69-1.05-.74.08-.72.08-.72 1.16.08 1.78 1.2 1.78 1.2 1.04 1.76 2.72 1.25 3.38.96.1-.76.4-1.26.73-1.55-2.54-.29-5.2-1.26-5.2-5.63 0-1.24.44-2.25 1.18-3.05-.12-.29-.5-1.45.12-3 0 0 .96-.31 3.16 1.16a10.9 10.9 0 0 1 5.76 0c2.2-1.47 3.16-1.16 3.16-1.16.62 1.55.24 2.71.12 3 .74.8 1.18 1.81 1.18 3.05 0 4.39-2.67 5.34-5.22 5.63.42.36.8 1.07.8 2.17v3.22c0 .32.22.68.8.58A10.99 10.99 0 0 0 23.5 12C23.5 5.65 18.35.5 12 .5Z"/>
</svg>
