<svg xmlns="http://www.w3.org/2000/svg" viewBox="0 0 24 24">
  <circle cx="12" cy="12" r="12" fill="#0b0c0f"/>
  <path fill="#e6e7ea" d="M12 3c-4.97 0-9 4.03-9 9 0 3.98 2.58 7.35 6.16 8.54.45.08.62-.2.62-.44 0-.22-.01-.96-.01-1.74-2.51.46-3.16-.61-3.36-1.17-.1-.26-.54-1.17-.92-1.41-.31-.2-.75-.69-.01-.7.69-.01 1.18.63 1.34.89.79 1.33 2.06.96 2.57.73.08-.57.31-.96.56-1.18-2.22-.25-4.56-1.11-4.56-4.95 0-1.09.39-1.98 1.03-2.68-.1-.25-.45-1.29.1-2.69 0 0 .84-.27 2.75 1.02a9.56 9.56 0 0 1 5 0c1.91-1.29 2.75-1.02 2.75-1.02.55 1.4.2 2.44.1 2.69.64.7 1.03 1.59 1.03 2.68 0 3.85-2.34 4.7-4.57 4.95.32.28.6.82.6 1.65 0 1.19-.01 2.15-.01 2.44 0 .24.17.52.62.43A9.01 9.01 0 0 0 21 12c0-4.97-4.03-9-9-9Z"/>
</svg>
