<svg xmlns="http://www.w3.org/2000/svg" viewBox="0 0 24 24">
  <path fill="currentColor" d="M12 .5C5.65.5.5 5.65.5 12c0 5.1 3.3 9.42 7.88 10.96.58.1.8-.25.8-.57 0-.28-.01-1.04-.02-2.05-3.2.7-3.88-1.54-3.88-1.54-.53-1.35-1.3-1.71-1.3-1.71-1.07-.74.08-.72.08-.72 1.18.08 1.8 1.22 1.8 1.22 1.05 1.8 2.75 1.28 3.42.98.1-.77.41-1.28.74-1.57-2.55-.29-5.24-1.28-5.24-5.68 0-1.25.45-2.27 1.2-3.07-.12-.29-.52-1.45.12-3.03 0 0 .98-.31 3.2 1.17a11.1 11.1 0 0 1 5.82 0c2.22-1.48 3.2-1.17 3.2-1.17.64 1.58.24 2.74.12 3.03.75.8 1.2 1.82 1.2 3.07 0 4.41-2.7 5.38-5.27 5.66.42.37.8 1.1.8 2.22 0 1.6-.01 2.9-.01 3.29 0 .32.21.68.81.56A10.52 10.52 0 0 0 23.5 12C23.5 5.65 18.35.5 12 .5Z"/>
</svg>
